<?xml version="1.0" encoding="UTF-8"?>
<svg xmlns="http://www.w3.org/2000/svg" xmlns:xlink="http://www.w3.org/1999/xlink" width="147" height="70" viewBox="0 0 147 70" version="1.1">
<defs>
<linearGradient id="linear0" gradientUnits="userSpaceOnUse" x1="77.21" y1="416.42" x2="186.41" y2="164.5" gradientTransform="matrix(0.133374,0,0,0.13408,0,0.0372602)">
<stop offset="0" style="stop-color:rgb(75.686275%,0%,83.137255%);stop-opacity:1;"/>
<stop offset="1" style="stop-color:rgb(100%,44.313725%,16.470588%);stop-opacity:1;"/>
</linearGradient>
<linearGradient id="linear1" gradientUnits="userSpaceOnUse" x1="80.77" y1="417.97" x2="189.98" y2="166.05" gradientTransform="matrix(0.133374,0,0,0.13408,0,0.0372602)">
<stop offset="0" style="stop-color:rgb(75.686275%,0%,83.137255%);stop-opacity:1;"/>
<stop offset="1" style="stop-color:rgb(100%,44.313725%,16.470588%);stop-opacity:1;"/>
</linearGradient>
<linearGradient id="linear2" gradientUnits="userSpaceOnUse" x1="422.3" y1="163.36" x2="135.16" y2="304.93" gradientTransform="matrix(0.133374,0,0,0.13408,0,0.0372602)">
<stop offset="0" style="stop-color:rgb(75.686275%,0%,83.137255%);stop-opacity:1;"/>
<stop offset="1" style="stop-color:rgb(0%,80.392157%,100%);stop-opacity:1;"/>
</linearGradient>
<linearGradient id="linear3" gradientUnits="userSpaceOnUse" x1="257.44" y1="70.34" x2="329.42" y2="621.34" gradientTransform="matrix(0.133374,0,0,0.13408,0,0.0372602)">
<stop offset="0" style="stop-color:rgb(100%,58.431373%,24.705882%);stop-opacity:1;"/>
<stop offset="1" style="stop-color:rgb(58.039216%,0%,58.039216%);stop-opacity:1;"/>
</linearGradient>
<linearGradient id="linear4" gradientUnits="userSpaceOnUse" x1="257.8" y1="70.29" x2="329.78" y2="621.3" gradientTransform="matrix(0.133374,0,0,0.13408,0,0.0372602)">
<stop offset="0" style="stop-color:rgb(100%,58.431373%,24.705882%);stop-opacity:1;"/>
<stop offset="1" style="stop-color:rgb(58.039216%,0%,58.039216%);stop-opacity:1;"/>
</linearGradient>
<linearGradient id="linear5" gradientUnits="userSpaceOnUse" x1="169.02" y1="397.16" x2="292.92" y2="397.16" gradientTransform="matrix(0.133374,0,0,0.13408,0,0.0372602)">
<stop offset="0" style="stop-color:rgb(15.294118%,83.137255%,0%);stop-opacity:1;"/>
<stop offset="1" style="stop-color:rgb(0%,80.392157%,100%);stop-opacity:1;"/>
</linearGradient>
<linearGradient id="linear6" gradientUnits="userSpaceOnUse" x1="292.66" y1="487.57" x2="299.72" y2="490.02" gradientTransform="matrix(0.133374,0,0,0.13408,0,0.0372602)">
<stop offset="0" style="stop-color:rgb(15.294118%,83.137255%,0%);stop-opacity:1;"/>
<stop offset="1" style="stop-color:rgb(0%,80.392157%,100%);stop-opacity:1;"/>
</linearGradient>
<linearGradient id="linear7" gradientUnits="userSpaceOnUse" x1="303.57" y1="220.84" x2="301.26" y2="221.98" gradientTransform="matrix(0.133374,0,0,0.13408,0,0.0372602)">
<stop offset="0" style="stop-color:rgb(75.686275%,0%,83.137255%);stop-opacity:1;"/>
<stop offset="1" style="stop-color:rgb(0%,80.392157%,100%);stop-opacity:1;"/>
</linearGradient>
<linearGradient id="linear8" gradientUnits="userSpaceOnUse" x1="353.11" y1="202.34" x2="133.45" y2="271.84" gradientTransform="matrix(0.133374,0,0,0.13408,0,0.0372602)">
<stop offset="0" style="stop-color:rgb(75.686275%,0%,83.137255%);stop-opacity:1;"/>
<stop offset="1" style="stop-color:rgb(0%,80.392157%,100%);stop-opacity:1;"/>
</linearGradient>
<linearGradient id="linear9" gradientUnits="userSpaceOnUse" x1="352.88" y1="201.63" x2="133.23" y2="271.13" gradientTransform="matrix(0.133374,0,0,0.13408,0,0.0372602)">
<stop offset="0" style="stop-color:rgb(75.686275%,0%,83.137255%);stop-opacity:1;"/>
<stop offset="1" style="stop-color:rgb(0%,80.392157%,100%);stop-opacity:1;"/>
</linearGradient>
</defs>
<g id="surface1">
<path style=" stroke:none;fill-rule:nonzero;fill:url(#linear0);" d="M 7.492188 53.691406 C 6.75 55.300781 7.445312 57.210938 9.046875 57.953125 C 10.644531 58.699219 12.542969 58 13.285156 56.390625 L 21.472656 38.632812 L 13.203125 41.320312 Z M 7.492188 53.691406 "/>
<path style=" stroke:none;fill-rule:nonzero;fill:url(#linear1);" d="M 27.851562 17.179688 C 27.082031 16.820312 26.203125 16.78125 25.40625 17.074219 C 24.609375 17.367188 23.960938 17.96875 23.605469 18.742188 L 16.863281 33.375 L 25.144531 30.691406 L 29.40625 21.449219 C 29.765625 20.675781 29.804688 19.792969 29.511719 18.988281 C 29.21875 18.1875 28.621094 17.535156 27.851562 17.179688 Z M 27.851562 17.179688 "/>
<path style=" stroke:none;fill-rule:nonzero;fill:url(#linear2);" d="M 45.144531 30.425781 C 43.578125 30.410156 42.25 29.261719 42.007812 27.703125 C 41.765625 26.148438 42.679688 24.644531 44.167969 24.152344 L 47.296875 23.140625 C 48.398438 22.746094 49.628906 22.984375 50.503906 23.761719 C 51.378906 24.542969 51.761719 25.742188 51.5 26.886719 C 51.238281 28.035156 50.375 28.945312 49.25 29.265625 L 46.121094 30.277344 C 45.804688 30.375 45.476562 30.425781 45.144531 30.425781 Z M 45.144531 30.425781 "/>
<path style=" stroke:none;fill-rule:nonzero;fill:url(#linear3);" d="M 40.132812 29.195312 C 40.144531 29.226562 40.152344 29.261719 40.15625 29.292969 L 37.265625 7.359375 C 36.964844 5.667969 35.390625 4.515625 33.695312 4.742188 C 32 4.96875 30.78125 6.492188 30.929688 8.207031 L 33.527344 27.957031 L 36.117188 27.121094 C 37.796875 26.585938 39.589844 27.511719 40.132812 29.195312 Z M 40.132812 29.195312 "/>
<path style=" stroke:none;fill-rule:nonzero;fill:url(#linear4);" d="M 40.277344 30.277344 C 40.242188 31.640625 39.351562 32.832031 38.0625 33.246094 L 34.378906 34.445312 L 36.777344 52.632812 L 43.789062 60.878906 C 44.15625 61.3125 44.40625 61.835938 44.511719 62.398438 Z M 40.277344 30.277344 "/>
<path style=" stroke:none;fill-rule:nonzero;fill:url(#linear5);" d="M 39.066406 65.199219 C 39.019531 65.160156 38.972656 65.117188 38.933594 65.066406 L 23.316406 46.695312 C 22.277344 45.339844 22.476562 43.402344 23.769531 42.285156 C 25.066406 41.171875 27.003906 41.273438 28.175781 42.519531 L 36.785156 52.640625 L 38.199219 63.394531 C 38.289062 64.074219 38.59375 64.707031 39.066406 65.199219 Z M 39.066406 65.199219 "/>
<path style=" stroke:none;fill-rule:nonzero;fill:rgb(1.568627%,18.823529%,47.058824%);fill-opacity:1;" d="M 44.554688 63 C 44.554688 63.125 44.542969 63.25 44.523438 63.375 C 44.523438 63.441406 44.511719 63.511719 44.492188 63.578125 C 44.46875 63.707031 44.4375 63.835938 44.394531 63.960938 C 44.367188 64.046875 44.335938 64.128906 44.300781 64.210938 C 44.253906 64.339844 44.191406 64.464844 44.117188 64.582031 C 44.023438 64.734375 43.921875 64.875 43.808594 65.011719 C 43.699219 65.152344 43.574219 65.28125 43.4375 65.398438 C 43.214844 65.585938 42.972656 65.75 42.710938 65.878906 C 42.609375 65.925781 42.507812 65.964844 42.402344 65.996094 C 42.308594 66.03125 42.210938 66.058594 42.117188 66.082031 C 42 66.117188 41.882812 66.136719 41.761719 66.148438 C 41.632812 66.167969 41.496094 66.179688 41.363281 66.179688 C 41.222656 66.179688 41.085938 66.167969 40.949219 66.148438 C 40.886719 66.148438 40.824219 66.136719 40.765625 66.117188 C 40.214844 66.007812 39.699219 65.757812 39.273438 65.386719 C 39.199219 65.332031 39.132812 65.265625 39.070312 65.195312 C 38.59375 64.703125 38.289062 64.066406 38.199219 63.386719 L 36.78125 52.632812 L 43.792969 60.878906 C 44.160156 61.3125 44.410156 61.835938 44.515625 62.398438 C 44.542969 62.597656 44.558594 62.796875 44.554688 63 Z M 44.554688 63 "/>
<path style=" stroke:none;fill-rule:nonzero;fill:url(#linear6);" d="M 39.921875 65.828125 C 39.683594 65.714844 39.464844 65.566406 39.269531 65.386719 C 39.46875 65.5625 39.6875 65.707031 39.921875 65.828125 Z M 39.921875 65.828125 "/>
<path style=" stroke:none;fill-rule:nonzero;fill:rgb(3.529412%,14.509804%,53.72549%);fill-opacity:1;" d="M 25.144531 30.6875 L 21.480469 38.632812 L 13.199219 41.320312 L 16.863281 33.375 Z M 25.144531 30.6875 "/>
<path style=" stroke:none;fill-rule:nonzero;fill:rgb(36.862745%,23.921569%,23.137255%);fill-opacity:1;" d="M 40.277344 30.257812 L 40.277344 30.277344 C 40.242188 31.640625 39.351562 32.832031 38.0625 33.246094 L 34.378906 34.445312 L 33.523438 27.957031 L 36.117188 27.121094 C 37.796875 26.585938 39.59375 27.511719 40.132812 29.199219 C 40.144531 29.230469 40.152344 29.261719 40.15625 29.292969 L 40.15625 29.304688 Z M 40.277344 30.257812 "/>
<path style=" stroke:none;fill-rule:nonzero;fill:url(#linear7);" d="M 40.277344 30.257812 L 40.144531 29.304688 C 40.246094 29.613281 40.292969 29.933594 40.277344 30.257812 Z M 40.277344 30.257812 "/>
<path style=" stroke:none;fill-rule:nonzero;fill:url(#linear8);" d="M 2.984375 41.246094 C 3.410156 42.578125 4.640625 43.480469 6.03125 43.480469 C 6.363281 43.480469 6.695312 43.429688 7.011719 43.328125 L 13.203125 41.320312 L 16.867188 33.375 L 5.050781 37.207031 C 3.375 37.753906 2.449219 39.558594 2.984375 41.246094 Z M 2.984375 41.246094 "/>
<path style=" stroke:none;fill-rule:nonzero;fill:url(#linear9);" d="M 33.527344 27.957031 L 25.144531 30.6875 L 21.480469 38.632812 L 34.382812 34.445312 Z M 33.527344 27.957031 "/>
<path style=" stroke:none;fill-rule:nonzero;fill:rgb(13.72549%,12.156863%,12.54902%);fill-opacity:1;" d="M 136.320312 40.054688 C 136.261719 40.347656 136.074219 40.601562 135.808594 40.738281 L 134.992188 41.152344 C 134.738281 41.285156 134.4375 41.300781 134.171875 41.191406 C 133.90625 41.085938 133.699219 40.871094 133.605469 40.597656 C 133.4375 40.125 133.699219 39.601562 134.140625 39.371094 L 134.828125 39.015625 C 135.285156 38.777344 135.875 38.871094 136.164062 39.292969 C 136.316406 39.515625 136.375 39.789062 136.320312 40.054688 Z M 136.320312 40.054688 "/>
<path style=" stroke:none;fill-rule:nonzero;fill:rgb(13.72549%,12.156863%,12.54902%);fill-opacity:1;" d="M 65.707031 49.648438 L 64.191406 46.609375 C 64.191406 46.597656 64.175781 46.589844 64.164062 46.589844 C 64.148438 46.59375 64.140625 46.609375 64.144531 46.621094 L 64.144531 49.632812 C 64.144531 49.648438 64.132812 49.660156 64.117188 49.660156 L 60.613281 49.660156 C 60.597656 49.660156 60.589844 49.648438 60.589844 49.632812 L 60.589844 35.242188 C 60.589844 35.226562 60.597656 35.214844 60.613281 35.214844 L 64.117188 35.214844 C 64.132812 35.214844 64.144531 35.226562 64.144531 35.242188 L 64.144531 43.175781 C 64.144531 43.1875 64.152344 43.199219 64.164062 43.199219 C 64.175781 43.203125 64.1875 43.195312 64.195312 43.1875 L 65.378906 40.261719 C 65.382812 40.25 65.394531 40.242188 65.402344 40.242188 L 69.4375 40.242188 C 69.445312 40.242188 69.453125 40.25 69.457031 40.257812 C 69.464844 40.265625 69.464844 40.277344 69.457031 40.285156 L 66.855469 44.933594 C 66.851562 44.941406 66.851562 44.953125 66.855469 44.960938 L 69.863281 49.621094 C 69.871094 49.628906 69.871094 49.640625 69.867188 49.648438 C 69.863281 49.65625 69.851562 49.660156 69.84375 49.660156 L 65.730469 49.660156 C 65.722656 49.660156 65.710938 49.65625 65.707031 49.648438 Z M 65.707031 49.648438 "/>
<path style=" stroke:none;fill-rule:nonzero;fill:rgb(13.72549%,12.156863%,12.54902%);fill-opacity:1;" d="M 78.136719 40.261719 C 78.574219 40.53125 78.902344 40.949219 79.058594 41.4375 C 79.261719 41.980469 79.363281 42.714844 79.363281 43.640625 L 79.363281 49.632812 C 79.363281 49.648438 79.351562 49.660156 79.335938 49.660156 L 75.851562 49.660156 C 75.835938 49.660156 75.824219 49.648438 75.824219 49.632812 L 75.824219 44.035156 C 75.824219 43.632812 75.773438 43.351562 75.675781 43.171875 C 75.566406 42.988281 75.359375 42.886719 75.148438 42.90625 C 74.949219 42.90625 74.753906 42.96875 74.589844 43.085938 C 74.421875 43.203125 74.273438 43.351562 74.152344 43.519531 L 74.152344 49.632812 C 74.152344 49.648438 74.140625 49.660156 74.125 49.660156 L 70.625 49.660156 C 70.609375 49.660156 70.597656 49.648438 70.597656 49.632812 L 70.597656 40.269531 C 70.597656 40.253906 70.609375 40.242188 70.625 40.242188 L 73.558594 40.242188 C 73.566406 40.242188 73.578125 40.25 73.582031 40.257812 L 73.921875 41.003906 C 74.285156 40.675781 74.695312 40.402344 75.140625 40.199219 C 75.566406 40.003906 76.03125 39.902344 76.5 39.902344 C 77.175781 39.902344 77.722656 40.023438 78.132812 40.265625 "/>
<path style=" stroke:none;fill-rule:nonzero;fill:rgb(13.72549%,12.156863%,12.54902%);fill-opacity:1;" d="M 82.292969 49.394531 C 81.613281 48.980469 81.078125 48.375 80.746094 47.652344 C 80.390625 46.898438 80.210938 46.003906 80.210938 44.96875 C 80.210938 43.933594 80.390625 43.03125 80.746094 42.261719 C 81.074219 41.535156 81.617188 40.921875 82.296875 40.507812 C 83.023438 40.085938 83.855469 39.878906 84.691406 39.902344 C 85.535156 39.878906 86.371094 40.09375 87.101562 40.511719 C 87.785156 40.929688 88.332031 41.542969 88.664062 42.273438 C 89.027344 43.035156 89.207031 43.9375 89.207031 44.980469 C 89.207031 46.023438 89.023438 46.914062 88.660156 47.660156 C 88.320312 48.386719 87.773438 48.996094 87.085938 49.402344 C 86.351562 49.820312 85.519531 50.03125 84.675781 50.011719 C 83.839844 50.03125 83.015625 49.816406 82.292969 49.394531 M 85.527344 46.480469 C 85.714844 46.125 85.808594 45.617188 85.808594 44.964844 C 85.808594 44.3125 85.714844 43.796875 85.523438 43.425781 C 85.332031 43.066406 85.058594 42.890625 84.703125 42.890625 C 84.351562 42.890625 84.070312 43.070312 83.875 43.425781 C 83.683594 43.785156 83.589844 44.296875 83.589844 44.964844 C 83.589844 45.632812 83.6875 46.125 83.882812 46.480469 C 84.078125 46.835938 84.355469 47.019531 84.714844 47.019531 C 85.074219 47.019531 85.339844 46.839844 85.527344 46.480469 "/>
<path style=" stroke:none;fill-rule:nonzero;fill:rgb(13.72549%,12.156863%,12.54902%);fill-opacity:1;" d="M 102.527344 40.277344 L 100.125 49.714844 C 100.121094 49.726562 100.113281 49.734375 100.101562 49.734375 L 96.804688 49.734375 C 96.792969 49.734375 96.78125 49.726562 96.78125 49.714844 L 95.863281 45.195312 L 95.84375 45.195312 L 94.933594 49.714844 C 94.929688 49.726562 94.921875 49.734375 94.90625 49.734375 L 91.605469 49.734375 C 91.59375 49.734375 91.582031 49.726562 91.578125 49.714844 L 89.179688 40.277344 C 89.175781 40.269531 89.179688 40.257812 89.183594 40.253906 C 89.1875 40.246094 89.195312 40.242188 89.203125 40.242188 L 92.757812 40.242188 C 92.769531 40.242188 92.78125 40.253906 92.785156 40.265625 L 93.363281 44.960938 L 93.394531 44.96875 L 93.382812 44.960938 L 94.304688 40.261719 C 94.304688 40.25 94.316406 40.238281 94.328125 40.238281 L 97.382812 40.238281 C 97.398438 40.238281 97.40625 40.25 97.410156 40.261719 L 98.296875 44.964844 L 98.304688 44.972656 L 98.316406 44.964844 L 98.929688 40.261719 C 98.933594 40.25 98.941406 40.238281 98.957031 40.238281 L 102.5 40.238281 C 102.511719 40.238281 102.519531 40.242188 102.523438 40.25 C 102.527344 40.257812 102.53125 40.269531 102.527344 40.277344 Z M 102.527344 40.277344 "/>
<path style=" stroke:none;fill-rule:nonzero;fill:rgb(13.72549%,12.156863%,12.54902%);fill-opacity:1;" d="M 103.136719 35.214844 L 106.640625 35.214844 C 106.652344 35.214844 106.667969 35.226562 106.667969 35.242188 L 106.667969 49.632812 C 106.667969 49.648438 106.652344 49.660156 106.640625 49.660156 L 103.136719 49.660156 C 103.121094 49.660156 103.109375 49.648438 103.109375 49.632812 L 103.109375 35.242188 C 103.109375 35.226562 103.121094 35.214844 103.136719 35.214844 Z M 103.136719 35.214844 "/>
<path style=" stroke:none;fill-rule:nonzero;fill:rgb(13.72549%,12.156863%,12.54902%);fill-opacity:1;" d="M 115.957031 45.074219 C 115.941406 45.300781 115.914062 45.523438 115.871094 45.746094 L 111.117188 45.746094 C 111.101562 45.746094 111.089844 45.761719 111.089844 45.777344 C 111.085938 46.148438 111.222656 46.507812 111.476562 46.777344 C 111.738281 47.042969 112.121094 47.179688 112.632812 47.179688 C 113.15625 47.183594 113.671875 47.117188 114.175781 46.980469 C 114.683594 46.835938 115.171875 46.640625 115.640625 46.402344 C 115.652344 46.398438 115.660156 46.398438 115.667969 46.402344 C 115.675781 46.40625 115.679688 46.417969 115.679688 46.425781 L 115.402344 49.242188 C 115.402344 49.25 115.398438 49.257812 115.390625 49.265625 C 114.921875 49.488281 114.429688 49.660156 113.929688 49.78125 C 113.378906 49.929688 112.8125 50.003906 112.242188 50.007812 C 111.265625 50.007812 110.425781 49.804688 109.726562 49.402344 C 109.035156 49.003906 108.480469 48.394531 108.148438 47.660156 C 107.785156 46.902344 107.609375 45.992188 107.613281 44.933594 C 107.613281 43.890625 107.792969 42.992188 108.148438 42.234375 C 108.46875 41.515625 109 40.910156 109.671875 40.5 C 110.394531 40.082031 111.21875 39.875 112.050781 39.898438 C 112.984375 39.898438 113.746094 40.101562 114.335938 40.511719 C 114.914062 40.90625 115.359375 41.46875 115.617188 42.121094 C 115.882812 42.808594 116.015625 43.542969 116.007812 44.28125 C 116.007812 44.496094 115.992188 44.757812 115.964844 45.070312 M 113.273438 44.050781 C 113.289062 44.050781 113.300781 44.039062 113.300781 44.023438 C 113.285156 43.554688 113.199219 43.1875 113.042969 42.929688 C 112.882812 42.667969 112.59375 42.515625 112.289062 42.535156 C 111.910156 42.535156 111.632812 42.664062 111.457031 42.917969 C 111.285156 43.164062 111.179688 43.535156 111.144531 44.019531 C 111.144531 44.027344 111.148438 44.035156 111.152344 44.042969 C 111.160156 44.046875 111.167969 44.050781 111.175781 44.050781 Z M 113.273438 44.050781 "/>
<path style=" stroke:none;fill-rule:nonzero;fill:rgb(13.72549%,12.156863%,12.54902%);fill-opacity:1;" d="M 125.476562 35.242188 L 125.46875 49.636719 C 125.46875 49.648438 125.457031 49.660156 125.441406 49.660156 L 122.535156 49.660156 L 122.277344 49.125 C 122.042969 49.398438 121.757812 49.621094 121.4375 49.78125 C 121.09375 49.933594 120.722656 50.007812 120.347656 49.996094 C 119.664062 50.003906 118.992188 49.785156 118.4375 49.378906 C 117.828125 48.921875 117.355469 48.308594 117.066406 47.605469 C 116.71875 46.773438 116.550781 45.875 116.570312 44.972656 C 116.550781 44.066406 116.699219 43.164062 117.003906 42.308594 C 117.242188 41.613281 117.671875 40.996094 118.238281 40.53125 C 118.777344 40.109375 119.441406 39.886719 120.121094 39.902344 C 120.757812 39.910156 121.371094 40.132812 121.871094 40.53125 C 121.878906 40.535156 121.890625 40.539062 121.898438 40.535156 C 121.90625 40.53125 121.914062 40.519531 121.914062 40.511719 L 121.914062 35.242188 C 121.914062 35.234375 121.914062 35.230469 121.921875 35.222656 C 121.925781 35.21875 121.933594 35.214844 121.9375 35.214844 L 125.449219 35.214844 C 125.464844 35.214844 125.476562 35.226562 125.476562 35.242188 Z M 121.921875 46.492188 L 121.921875 43.226562 C 121.808594 43.113281 121.679688 43.023438 121.535156 42.960938 C 121.398438 42.910156 121.253906 42.886719 121.109375 42.890625 C 120.734375 42.886719 120.390625 43.105469 120.238281 43.453125 C 120.046875 43.824219 119.949219 44.332031 119.949219 44.96875 C 119.949219 45.605469 120.042969 46.105469 120.230469 46.464844 C 120.417969 46.839844 120.691406 47.027344 121.042969 47.027344 C 121.355469 47.027344 121.648438 46.847656 121.921875 46.492188 "/>
<path style=" stroke:none;fill-rule:nonzero;fill:rgb(13.72549%,12.156863%,12.54902%);fill-opacity:1;" d="M 134.269531 48.410156 C 133.71875 47.96875 132.863281 47.742188 131.710938 47.753906 L 129.894531 47.753906 C 129.738281 47.769531 129.578125 47.730469 129.445312 47.644531 C 129.355469 47.554688 129.3125 47.425781 129.324219 47.296875 L 129.554688 47.023438 C 129.824219 47.070312 130.101562 47.09375 130.375 47.089844 C 131.058594 47.101562 131.734375 46.953125 132.347656 46.648438 C 132.894531 46.367188 133.351562 45.929688 133.65625 45.386719 C 133.972656 44.804688 134.128906 44.148438 134.117188 43.484375 L 134.117188 43.417969 C 134.117188 43.410156 134.117188 43.398438 134.117188 43.386719 C 133.925781 41.265625 132.660156 40.464844 132.039062 40.199219 C 132.011719 40.183594 131.980469 40.167969 131.949219 40.15625 C 131.898438 40.136719 131.84375 40.121094 131.792969 40.101562 C 131.761719 40.089844 131.730469 40.082031 131.699219 40.074219 C 131.269531 39.949219 130.828125 39.886719 130.378906 39.890625 C 129.699219 39.878906 129.027344 40.03125 128.417969 40.335938 C 127.871094 40.613281 127.414062 41.050781 127.109375 41.585938 C 126.789062 42.164062 126.628906 42.816406 126.640625 43.480469 C 126.632812 44.019531 126.734375 44.554688 126.9375 45.050781 C 127.128906 45.496094 127.414062 45.894531 127.78125 46.210938 C 127.785156 46.214844 127.789062 46.21875 127.789062 46.226562 C 127.789062 46.234375 127.785156 46.242188 127.78125 46.246094 L 126.550781 47.601562 C 126.546875 47.605469 126.542969 47.613281 126.542969 47.621094 C 126.542969 48.335938 126.640625 48.878906 126.832031 49.246094 C 127 49.589844 127.289062 49.851562 127.640625 49.984375 C 127.652344 49.984375 127.660156 49.996094 127.660156 50.003906 C 127.660156 50.015625 127.652344 50.023438 127.640625 50.027344 C 127.273438 50.195312 126.9375 50.421875 126.644531 50.699219 C 126.398438 50.953125 126.265625 51.296875 126.277344 51.652344 C 126.261719 52.148438 126.445312 52.632812 126.78125 52.992188 C 127.167969 53.386719 127.648438 53.667969 128.179688 53.808594 C 128.855469 54 129.554688 54.089844 130.253906 54.078125 C 131.285156 54.078125 132.164062 53.910156 132.890625 53.574219 C 133.5625 53.285156 134.140625 52.808594 134.542969 52.195312 C 134.917969 51.609375 135.109375 50.929688 135.101562 50.234375 C 135.128906 49.527344 134.820312 48.851562 134.269531 48.410156 Z M 129.773438 42.601562 C 129.917969 42.414062 130.140625 42.300781 130.378906 42.300781 C 130.617188 42.300781 130.84375 42.414062 130.988281 42.601562 C 131.144531 42.863281 131.21875 43.164062 131.199219 43.46875 C 131.21875 43.78125 131.144531 44.089844 130.988281 44.359375 C 130.847656 44.554688 130.621094 44.667969 130.378906 44.667969 C 130.140625 44.667969 129.914062 44.554688 129.773438 44.359375 C 129.621094 44.089844 129.546875 43.78125 129.566406 43.46875 C 129.546875 43.167969 129.621094 42.863281 129.773438 42.601562 Z M 131.390625 51.484375 C 131.140625 51.640625 130.789062 51.71875 130.339844 51.71875 C 130.074219 51.734375 129.808594 51.6875 129.558594 51.585938 C 129.378906 51.488281 129.273438 51.292969 129.292969 51.089844 C 129.296875 50.933594 129.351562 50.78125 129.445312 50.65625 C 129.570312 50.476562 129.710938 50.308594 129.867188 50.15625 C 129.875 50.152344 129.878906 50.148438 129.886719 50.148438 L 130.746094 50.148438 C 131.007812 50.136719 131.269531 50.199219 131.5 50.324219 C 131.683594 50.433594 131.792969 50.636719 131.78125 50.851562 C 131.777344 51.117188 131.628906 51.363281 131.390625 51.484375 Z M 131.390625 51.484375 "/>
<path style=" stroke:none;fill-rule:nonzero;fill:rgb(13.72549%,12.156863%,12.54902%);fill-opacity:1;" d="M 143.734375 45.074219 C 143.722656 45.300781 143.691406 45.523438 143.648438 45.746094 L 138.898438 45.746094 C 138.882812 45.746094 138.871094 45.761719 138.871094 45.777344 C 138.863281 46.148438 139.003906 46.507812 139.257812 46.777344 C 139.515625 47.042969 139.902344 47.179688 140.414062 47.179688 C 140.933594 47.183594 141.453125 47.117188 141.953125 46.980469 C 142.460938 46.835938 142.953125 46.640625 143.421875 46.402344 C 143.429688 46.398438 143.441406 46.398438 143.449219 46.402344 C 143.457031 46.40625 143.460938 46.417969 143.460938 46.425781 L 143.183594 49.242188 C 143.179688 49.25 143.175781 49.257812 143.167969 49.265625 C 142.703125 49.488281 142.214844 49.664062 141.714844 49.785156 C 141.164062 49.933594 140.597656 50.007812 140.027344 50.011719 C 139.050781 50.011719 138.210938 49.8125 137.515625 49.410156 C 136.820312 49.007812 136.265625 48.398438 135.933594 47.667969 C 135.574219 46.90625 135.394531 46 135.398438 44.9375 C 135.398438 43.898438 135.578125 42.996094 135.933594 42.242188 C 136.253906 41.519531 136.789062 40.914062 137.460938 40.503906 C 138.121094 40.101562 138.914062 39.902344 139.835938 39.902344 C 140.757812 39.902344 141.519531 40.109375 142.121094 40.519531 C 142.699219 40.914062 143.144531 41.472656 143.398438 42.128906 C 143.671875 42.816406 143.804688 43.546875 143.800781 44.285156 C 143.800781 44.5 143.785156 44.765625 143.757812 45.078125 M 141.066406 44.058594 C 141.082031 44.054688 141.09375 44.042969 141.09375 44.027344 C 141.078125 43.558594 140.992188 43.195312 140.828125 42.9375 C 140.667969 42.671875 140.378906 42.523438 140.074219 42.539062 C 139.695312 42.539062 139.417969 42.667969 139.242188 42.921875 C 139.066406 43.175781 138.960938 43.542969 138.933594 44.027344 C 138.933594 44.035156 138.933594 44.042969 138.941406 44.046875 C 138.945312 44.054688 138.953125 44.058594 138.960938 44.058594 Z M 141.066406 44.058594 "/>
<path style=" stroke:none;fill-rule:nonzero;fill:rgb(13.72549%,12.156863%,12.54902%);fill-opacity:1;" d="M 68.125 56.484375 C 68.539062 56.753906 68.851562 57.183594 69.058594 57.777344 C 69.261719 58.367188 69.363281 59.152344 69.355469 60.125 L 69.355469 65.8125 C 69.355469 65.828125 69.34375 65.839844 69.328125 65.839844 L 65.839844 65.839844 C 65.835938 65.839844 65.828125 65.835938 65.824219 65.832031 C 65.820312 65.828125 65.816406 65.820312 65.816406 65.8125 L 65.816406 60.214844 C 65.816406 59.8125 65.765625 59.53125 65.664062 59.351562 C 65.554688 59.167969 65.351562 59.066406 65.140625 59.085938 C 64.941406 59.085938 64.746094 59.152344 64.585938 59.269531 C 64.417969 59.390625 64.265625 59.535156 64.140625 59.703125 C 64.136719 59.707031 64.136719 59.714844 64.140625 59.71875 L 64.140625 65.8125 C 64.140625 65.828125 64.128906 65.839844 64.113281 65.839844 L 60.617188 65.839844 C 60.605469 65.839844 60.59375 65.828125 60.59375 65.8125 L 60.59375 51.421875 C 60.59375 51.40625 60.605469 51.394531 60.617188 51.394531 L 64.121094 51.394531 C 64.128906 51.394531 64.136719 51.398438 64.140625 51.402344 C 64.144531 51.40625 64.148438 51.414062 64.148438 51.421875 L 64.148438 56.949219 C 64.148438 56.957031 64.15625 56.964844 64.164062 56.972656 C 64.171875 56.976562 64.183594 56.972656 64.191406 56.96875 C 64.523438 56.707031 64.886719 56.492188 65.277344 56.328125 C 65.664062 56.167969 66.078125 56.082031 66.496094 56.082031 C 67.167969 56.082031 67.710938 56.214844 68.128906 56.484375 "/>
<path style=" stroke:none;fill-rule:nonzero;fill:rgb(13.72549%,12.156863%,12.54902%);fill-opacity:1;" d="M 79.207031 56.449219 L 79.207031 65.8125 C 79.207031 65.828125 79.195312 65.839844 79.179688 65.839844 L 76.246094 65.839844 C 76.234375 65.839844 76.226562 65.832031 76.222656 65.824219 L 75.878906 65.058594 C 75.515625 65.390625 75.101562 65.664062 74.65625 65.871094 C 74.234375 66.074219 73.773438 66.175781 73.304688 66.179688 C 72.628906 66.179688 72.082031 66.058594 71.667969 65.816406 C 71.230469 65.546875 70.902344 65.128906 70.746094 64.636719 C 70.542969 64.089844 70.441406 63.359375 70.441406 62.441406 L 70.441406 56.449219 C 70.441406 56.433594 70.453125 56.421875 70.46875 56.421875 L 73.960938 56.421875 C 73.976562 56.421875 73.988281 56.433594 73.988281 56.449219 L 73.988281 62.046875 C 73.988281 62.449219 74.039062 62.738281 74.136719 62.914062 C 74.230469 63.089844 74.410156 63.179688 74.667969 63.179688 C 74.867188 63.179688 75.058594 63.113281 75.214844 62.992188 C 75.390625 62.871094 75.539062 62.714844 75.65625 62.539062 L 75.664062 56.453125 C 75.664062 56.4375 75.675781 56.425781 75.691406 56.425781 L 79.183594 56.425781 C 79.195312 56.425781 79.203125 56.4375 79.207031 56.449219 Z M 79.207031 56.449219 "/>
<path style=" stroke:none;fill-rule:nonzero;fill:rgb(13.72549%,12.156863%,12.54902%);fill-opacity:1;" d="M 84.371094 53.710938 C 84.378906 53.703125 84.386719 53.703125 84.394531 53.703125 L 85.058594 53.703125 L 85.058594 56.394531 C 85.058594 56.410156 85.070312 56.421875 85.085938 56.421875 L 87.566406 56.421875 C 87.582031 56.421875 87.59375 56.433594 87.59375 56.449219 L 87.59375 59.519531 C 87.59375 59.535156 87.582031 59.546875 87.566406 59.546875 L 85.082031 59.546875 C 85.078125 59.546875 85.070312 59.546875 85.066406 59.554688 C 85.058594 59.558594 85.058594 59.566406 85.058594 59.570312 L 85.058594 61.824219 C 85.058594 62.210938 85.128906 62.492188 85.277344 62.664062 C 85.441406 62.847656 85.679688 62.949219 85.925781 62.933594 C 86.195312 62.933594 86.464844 62.898438 86.726562 62.832031 C 86.964844 62.777344 87.195312 62.699219 87.421875 62.601562 L 87.234375 65.738281 C 87.234375 65.746094 87.226562 65.757812 87.21875 65.761719 C 86.601562 66.039062 85.933594 66.183594 85.257812 66.175781 C 83.898438 66.175781 82.933594 65.816406 82.367188 65.09375 C 81.796875 64.375 81.511719 63.347656 81.511719 62.011719 L 81.511719 59.570312 C 81.511719 59.5625 81.507812 59.554688 81.503906 59.550781 C 81.496094 59.546875 81.492188 59.542969 81.484375 59.542969 L 79.945312 59.542969 C 79.929688 59.542969 79.917969 59.53125 79.917969 59.515625 L 79.917969 58.710938 C 79.917969 58.707031 79.917969 58.699219 79.917969 58.691406 Z M 84.371094 53.710938 "/>
<path style=" stroke:none;fill-rule:nonzero;fill:rgb(93.333333%,17.254902%,23.529412%);fill-opacity:1;" d="M 65.351562 27.464844 C 65.351562 28.421875 64.921875 28.882812 64.128906 28.882812 C 63.378906 28.882812 63.003906 28.492188 63.003906 27.535156 L 63.003906 23.40625 L 60.59375 23.40625 L 60.59375 28.058594 C 60.59375 29.871094 61.527344 30.855469 63.144531 30.855469 C 64.15625 30.855469 64.863281 30.453125 65.351562 29.738281 L 65.351562 30.640625 L 67.75 30.640625 L 67.75 23.40625 L 65.351562 23.40625 Z M 65.351562 27.464844 "/>
<path style=" stroke:none;fill-rule:nonzero;fill:rgb(93.333333%,17.254902%,23.529412%);fill-opacity:1;" d="M 73.523438 23.1875 C 72.558594 23.1875 71.824219 23.539062 71.304688 24.277344 L 71.304688 23.40625 L 68.953125 23.40625 L 68.953125 33.566406 L 71.355469 33.566406 L 71.355469 29.839844 C 71.859375 30.523438 72.582031 30.839844 73.515625 30.839844 C 74.84375 30.839844 75.808594 30.1875 76.316406 29.097656 C 76.835938 27.761719 76.835938 26.277344 76.316406 24.941406 C 75.816406 23.84375 74.851562 23.1875 73.523438 23.1875 Z M 73.972656 28.132812 C 73.757812 28.609375 73.324219 28.855469 72.730469 28.855469 C 71.824219 28.855469 71.335938 28.277344 71.335938 27.203125 L 71.335938 26.8125 C 71.335938 25.738281 71.824219 25.160156 72.730469 25.160156 C 73.324219 25.160156 73.757812 25.40625 73.972656 25.882812 C 74.085938 26.144531 74.144531 26.507812 74.144531 27.015625 C 74.144531 27.523438 74.085938 27.871094 73.972656 28.132812 Z M 73.972656 28.132812 "/>
<path style=" stroke:none;fill-rule:nonzero;fill:rgb(93.333333%,17.254902%,23.529412%);fill-opacity:1;" d="M 92.582031 23.203125 C 92.007812 23.203125 91.601562 23.449219 91.230469 24.058594 L 91.230469 23.40625 L 88.828125 23.40625 L 88.828125 30.636719 L 91.234375 30.636719 L 91.234375 26.078125 C 91.234375 25.574219 91.28125 25.457031 91.480469 25.367188 C 91.703125 25.785156 92.136719 26.039062 92.605469 26.023438 C 93.425781 26.023438 93.992188 25.429688 93.992188 24.617188 C 93.996094 23.769531 93.449219 23.203125 92.582031 23.203125 Z M 92.582031 23.203125 "/>
<path style=" stroke:none;fill-rule:nonzero;fill:rgb(93.333333%,17.254902%,23.529412%);fill-opacity:1;" d="M 98.070312 23.1875 C 96.457031 23.1875 95.230469 23.667969 94.753906 24.726562 C 94.617188 25.046875 94.542969 25.390625 94.539062 25.738281 L 96.988281 25.738281 C 96.992188 25.589844 97.023438 25.445312 97.074219 25.304688 C 97.21875 24.984375 97.535156 24.839844 98.097656 24.839844 C 98.617188 24.839844 98.949219 25 99.09375 25.320312 C 99.179688 25.507812 99.210938 25.667969 99.210938 26.101562 L 99.210938 26.21875 L 98.128906 26.21875 C 96.371094 26.21875 94.96875 26.484375 94.453125 27.609375 C 94.328125 27.921875 94.269531 28.257812 94.28125 28.59375 C 94.265625 28.949219 94.335938 29.300781 94.480469 29.625 C 94.839844 30.433594 95.691406 30.839844 96.832031 30.839844 C 98 30.839844 98.734375 30.449219 99.210938 29.78125 L 99.210938 30.636719 L 101.609375 30.636719 L 101.609375 26.480469 C 101.628906 25.875 101.523438 25.265625 101.308594 24.699219 C 100.835938 23.652344 99.816406 23.1875 98.070312 23.1875 Z M 99.210938 27.667969 C 99.210938 28.058594 99.179688 28.261719 99.074219 28.464844 C 98.886719 28.882812 98.46875 29.117188 97.820312 29.117188 C 97.390625 29.117188 97.015625 29 96.871094 28.679688 C 96.816406 28.574219 96.792969 28.453125 96.796875 28.332031 C 96.796875 28.222656 96.820312 28.113281 96.871094 28.015625 C 97.027344 27.636719 97.589844 27.566406 98.28125 27.566406 L 99.207031 27.566406 Z M 99.210938 27.667969 "/>
<path style=" stroke:none;fill-rule:nonzero;fill:rgb(93.333333%,17.254902%,23.529412%);fill-opacity:1;" d="M 107.953125 20.40625 L 107.953125 24.1875 C 107.433594 23.507812 106.730469 23.1875 105.792969 23.1875 C 104.464844 23.1875 103.484375 23.84375 102.992188 24.941406 C 102.472656 26.28125 102.472656 27.761719 102.992188 29.097656 C 103.496094 30.199219 104.457031 30.84375 105.792969 30.84375 C 106.773438 30.84375 107.492188 30.496094 108.011719 29.769531 L 108.011719 30.640625 L 110.359375 30.640625 L 110.359375 20.40625 Z M 107.984375 27.234375 C 107.984375 28.304688 107.492188 28.882812 106.585938 28.882812 C 105.992188 28.882812 105.5625 28.636719 105.34375 28.160156 C 105.210938 27.792969 105.152344 27.40625 105.171875 27.015625 C 105.171875 26.507812 105.230469 26.144531 105.34375 25.882812 C 105.5625 25.40625 105.992188 25.160156 106.585938 25.160156 C 107.492188 25.160156 107.984375 25.738281 107.984375 26.8125 Z M 107.984375 27.234375 "/>
<path style=" stroke:none;fill-rule:nonzero;fill:rgb(93.333333%,17.254902%,23.529412%);fill-opacity:1;" d="M 83.394531 27.0625 L 84.949219 27.0625 L 84.890625 27.304688 C 84.695312 28.109375 83.734375 28.660156 82.953125 28.660156 C 81.871094 28.660156 80.46875 28.132812 80.46875 25.636719 C 80.46875 23.566406 81.371094 22.578125 82.753906 22.578125 C 83.507812 22.578125 84.085938 22.757812 84.4375 23.285156 C 84.597656 23.53125 84.699219 23.808594 84.734375 24.101562 L 87.492188 24.101562 C 87.480469 23.203125 87.132812 22.347656 86.519531 21.695312 L 86.472656 21.648438 C 85.632812 20.734375 84.375 20.222656 82.816406 20.222656 C 79.632812 20.222656 77.574219 22.355469 77.574219 25.652344 C 77.574219 29.460938 80.179688 30.8125 82.410156 30.8125 C 83.660156 30.8125 84.789062 30.4375 85.476562 29.699219 L 85.511719 30.636719 L 87.667969 30.636719 L 87.667969 25.195312 L 83.398438 25.195312 Z M 83.394531 27.0625 "/>
</g>
</svg>
